<svg width="1132" height="1132" viewBox="0 0 1132 1132" fill="none" xmlns="http://www.w3.org/2000/svg">
<rect y="566.807" width="800" height="800" rx="66" transform="rotate(-45.1137 0 566.807)" fill="white"/>
<path d="M517.647 46.4238C543.371 20.5981 585.16 20.5149 610.985 46.2383L700.038 134.938L593.271 223.067C586.293 220.227 578.66 218.662 570.662 218.662C537.525 218.662 510.662 245.525 510.662 278.662C510.662 304.411 526.882 326.37 549.662 334.883V441.44C526.882 449.953 510.662 471.913 510.662 497.662C510.662 522.651 525.939 544.07 547.662 553.094V762.44C539.72 765.408 532.576 770.01 526.638 775.838L425.461 678.758C428.171 671.919 429.662 664.465 429.662 656.662C429.662 623.525 402.799 596.662 369.662 596.662C336.525 596.662 309.662 623.525 309.662 656.662C309.662 689.799 336.525 716.662 369.662 716.662C379.249 716.662 388.31 714.413 396.348 710.415L508.665 818.185C508.664 818.344 508.662 818.503 508.662 818.662C508.662 851.799 535.525 878.662 568.662 878.662C601.799 878.662 628.662 851.799 628.662 818.662C628.662 793.291 612.915 771.599 590.662 762.824V554.247C613.602 546.139 630.138 524.477 630.648 498.883L726.705 426.432C736.549 433.5 748.619 437.662 761.662 437.662C794.799 437.662 821.662 410.799 821.662 377.662C821.662 344.525 794.799 317.662 761.662 317.662C728.525 317.662 701.662 344.525 701.662 377.662C701.662 382.045 702.131 386.317 703.023 390.433L614.776 456.994C608.694 450.399 601.152 445.172 592.662 441.824V334.5C614.915 325.725 630.662 304.033 630.662 278.662C630.662 269.397 628.561 260.623 624.812 252.789L730.648 165.428L1084.27 517.647C1110.09 543.371 1110.18 585.16 1084.45 610.985L613.045 1084.27C587.321 1110.09 545.533 1110.18 519.707 1084.45L46.4238 613.045C20.5982 587.322 20.5149 545.533 46.2383 519.707L517.647 46.4238Z" fill="#46A347"/>
</svg>
